<svg width="224" height="62" viewBox="0 0 224 62" fill="none" xmlns="http://www.w3.org/2000/svg">
<path d="M75.0097 41.4395V19.5151H89.7829V23.3368H79.645V28.561H89.0229V32.3828H79.645V37.6177H89.8258V41.4395H75.0097ZM111.806 19.5151V41.4395H107.803L98.2642 27.6404H98.1036V41.4395H93.4682V19.5151H97.5362L107 33.3034H107.192V19.5151H111.806ZM119.597 19.5151L124.896 36.1725H125.1L130.409 19.5151H135.548L127.99 41.4395H122.016L114.448 19.5151H119.597ZM142.822 19.5151V41.4395H138.187V19.5151H142.822ZM150.415 41.4395H145.448L153.016 19.5151H158.99L166.548 41.4395H161.58L156.089 24.5251H155.917L150.415 41.4395ZM150.104 32.8217H161.837V36.4401H150.104V32.8217ZM169.187 41.4395V19.5151H177.965C179.578 19.5151 180.923 19.7541 182.001 20.2323C183.078 20.7105 183.888 21.3742 184.431 22.2235C184.973 23.0656 185.244 24.0363 185.244 25.1353C185.244 25.9918 185.073 26.7447 184.731 27.3941C184.388 28.0365 183.917 28.5646 183.318 28.9785C182.725 29.3853 182.047 29.6744 181.284 29.8456V30.0598C182.119 30.0954 182.9 30.331 183.628 30.7663C184.363 31.2016 184.959 31.8118 185.416 32.5969C185.873 33.3748 186.101 34.3026 186.101 35.3803C186.101 36.5436 185.812 37.582 185.234 38.4955C184.663 39.4019 183.817 40.1191 182.697 40.6473C181.576 41.1754 180.195 41.4395 178.554 41.4395H169.187ZM173.822 37.6498H177.601C178.893 37.6498 179.835 37.4036 180.427 36.9111C181.019 36.4115 181.316 35.7478 181.316 34.9199C181.316 34.3133 181.169 33.778 180.877 33.3142C180.584 32.8503 180.167 32.4863 179.624 32.2222C179.089 31.9582 178.45 31.8261 177.708 31.8261H173.822V37.6498ZM173.822 28.6895H177.258C177.894 28.6895 178.457 28.5789 178.95 28.3576C179.449 28.1292 179.842 27.8081 180.127 27.3941C180.42 26.9802 180.566 26.4842 180.566 25.9061C180.566 25.1139 180.284 24.4752 179.721 23.9899C179.164 23.5046 178.372 23.2619 177.344 23.2619H173.822V28.6895ZM189.117 41.4395V19.5151H193.752V37.6177H203.152V41.4395H189.117ZM206.221 41.4395V19.5151H220.995V23.3368H210.857V28.561H220.235V32.3828H210.857V37.6177H221.038V41.4395H206.221Z" fill="#0057FF"/>
<path fill-rule="evenodd" clip-rule="evenodd" d="M23.8996 61.35V49.5723C21.045 49.5724 18.1904 50.7719 16.1694 53.1703L23.899 61.3505L23.8996 61.35ZM23.8996 43.3223V37.7694H23.899C20.4807 37.7694 17.2589 38.6145 14.4291 40.1091L13.5118 39.1388C13.1236 38.728 12.5176 38.6488 12.038 38.9471C10.429 39.9468 8.95335 41.145 7.64691 42.5066C7.20819 42.9634 7.20527 43.6852 7.64108 44.146L7.90145 44.4207L7.90309 44.4224C8.06845 44.5968 8.23407 44.7714 8.39886 44.9461L12.2297 49.0005L12.787 49.5903C13.0205 49.8368 13.3123 49.961 13.6499 49.9591C13.9884 49.9561 14.2773 49.827 14.5069 49.5776C15.6217 48.3618 16.968 47.3631 18.4739 46.652C18.827 46.4847 19.0585 46.1844 19.1305 45.799C19.2025 45.4126 19.0955 45.0488 18.827 44.7641L18.4447 44.3592C20.1334 43.6901 21.9739 43.3223 23.899 43.3223H23.8996ZM23.8996 33.4822V14.4368H23.899C18.6684 14.4368 14.4291 18.7005 14.4291 23.96C14.4291 29.2185 18.6684 33.4822 23.899 33.4822H23.8996ZM23.8996 7.98994V0.254885C17.7742 0.252416 11.6507 2.70805 7.00683 7.62301L6.96208 7.66898C-1.53899 16.666 -2.25398 30.9107 4.81225 40.8095C6.54573 38.8962 8.56035 37.2442 10.7899 35.9198C6.14203 29.018 6.67511 19.1583 12.5186 13.0067L12.5633 12.9598C15.7058 9.65184 19.803 7.99292 23.8996 7.98994ZM23.8999 61.3504V49.5723C26.7543 49.5725 29.6088 50.772 31.6297 53.1703L23.9 61.3505L23.8999 61.3504ZM23.8999 43.3223V37.7694H23.9C27.3184 37.7694 30.5402 38.6145 33.37 40.1091L34.2873 39.1388C34.6754 38.728 35.2815 38.6488 35.7611 38.9471C37.37 39.9468 38.8457 41.145 40.1522 42.5066C40.5909 42.9634 40.5938 43.6852 40.158 44.146L39.8976 44.4207L39.8971 44.4212C39.7314 44.596 39.5654 44.771 39.4002 44.9461L35.5694 49.0005L35.012 49.5903C34.7786 49.8368 34.4867 49.961 34.1492 49.9591C33.8106 49.9561 33.5217 49.827 33.2922 49.5776C32.1774 48.3618 30.831 47.3631 29.3252 46.652C28.9721 46.4847 28.7405 46.1844 28.6686 45.799C28.5966 45.4126 28.7036 45.0488 28.9721 44.7641L29.3544 44.3592C27.6656 43.6901 25.8251 43.3223 23.9 43.3223H23.8999ZM23.8999 33.4822V14.4368H23.9C29.1306 14.4368 33.37 18.7005 33.37 23.96C33.37 29.2185 29.1306 33.4822 23.9 33.4822H23.8999ZM23.8999 7.98994V0.254885C30.0252 0.252527 36.1485 2.70816 40.7922 7.62301L40.837 7.66898C49.3381 16.666 50.0531 30.9107 42.9868 40.8095C41.2533 38.8962 39.2387 37.2442 37.0091 35.9198C41.657 29.018 41.124 19.1583 35.2805 13.0067L35.2358 12.9598C32.0934 9.65196 27.9963 7.99303 23.8999 7.98994Z" fill="#0057FF"/>
</svg>
